<svg width="24" height="24" viewBox="0 0 24 24" fill="none" xmlns="http://www.w3.org/2000/svg">
<path d="M3.60002 1.20001C2.93729 1.20001 2.40002 1.73728 2.40002 2.40001C2.40002 3.06275 2.93729 3.60001 3.60002 3.60001H5.06309L5.42976 5.0667C5.43361 5.08366 5.43782 5.10048 5.44238 5.11716L7.07106 11.6319L5.99996 12.703C4.48805 14.2149 5.55884 16.8 7.69702 16.8H18C18.6627 16.8 19.2 16.2628 19.2 15.6C19.2 14.9373 18.6627 14.4 18 14.4H7.69703L8.89702 13.2H16.8C17.2546 13.2 17.67 12.9432 17.8733 12.5367L21.4733 5.33666C21.6593 4.96469 21.6395 4.52292 21.4209 4.16914C21.2021 3.81535 20.8159 3.60001 20.4 3.60001H7.53696L7.16419 2.10896C7.03064 1.57477 6.55067 1.20001 6.00002 1.20001H3.60002Z" fill="#667085"/>
<path d="M19.2 19.8C19.2 20.7941 18.3941 21.6 17.4 21.6C16.4059 21.6 15.6 20.7941 15.6 19.8C15.6 18.8059 16.4059 18 17.4 18C18.3941 18 19.2 18.8059 19.2 19.8Z" fill="#667085"/>
<path d="M7.8 21.6C8.79412 21.6 9.6 20.7941 9.6 19.8C9.6 18.8059 8.79412 18 7.8 18C6.80588 18 6 18.8059 6 19.8C6 20.7941 6.80588 21.6 7.8 21.6Z" fill="#667085"/>
</svg>
