<svg width="145" height="38" viewBox="0 0 145 38" fill="none" xmlns="http://www.w3.org/2000/svg">
<g filter="url(#filter0_dd_6_40117)">
<g clip-path="url(#clip0_6_40117)">
<rect x="3" y="2" width="32" height="32" rx="8" fill="white"/>
<rect x="3" y="2" width="32" height="32" rx="8" fill="url(#paint0_linear_6_40117)"/>
<path fill-rule="evenodd" clip-rule="evenodd" d="M19 4.03882C11.2895 4.03882 5.03885 10.2894 5.03885 18C5.03885 25.7105 11.2895 31.9612 19 31.9612C26.7106 31.9612 32.9612 25.7105 32.9612 18C32.9612 10.2894 26.7106 4.03882 19 4.03882ZM4.96118 18C4.96118 10.2466 11.2466 3.96115 19 3.96115C26.7535 3.96115 33.0389 10.2466 33.0389 18C33.0389 25.7534 26.7535 32.0388 19 32.0388C11.2466 32.0388 4.96118 25.7534 4.96118 18Z" fill="#D0D5DD"/>
<path fill-rule="evenodd" clip-rule="evenodd" d="M19 14.0779C16.8338 14.0779 15.0777 15.834 15.0777 18.0002C15.0777 20.1665 16.8338 21.9225 19 21.9225C21.1662 21.9225 22.9223 20.1665 22.9223 18.0002C22.9223 15.834 21.1662 14.0779 19 14.0779ZM15 18.0002C15 15.7911 16.7909 14.0002 19 14.0002C21.2091 14.0002 23 15.7911 23 18.0002C23 20.2094 21.2091 22.0002 19 22.0002C16.7909 22.0002 15 20.2094 15 18.0002Z" fill="#D0D5DD"/>
<path fill-rule="evenodd" clip-rule="evenodd" d="M19 15.3201C17.5201 15.3201 16.3204 16.5198 16.3204 17.9997C16.3204 19.4796 17.5201 20.6793 19 20.6793C20.4799 20.6793 21.6796 19.4796 21.6796 17.9997C21.6796 16.5198 20.4799 15.3201 19 15.3201ZM16.2427 17.9997C16.2427 16.4769 17.4772 15.2424 19 15.2424C20.5228 15.2424 21.7573 16.4769 21.7573 17.9997C21.7573 19.5225 20.5228 20.757 19 20.757C17.4772 20.757 16.2427 19.5225 16.2427 17.9997Z" fill="#D0D5DD"/>
<path d="M18.9612 2H19.0389V34H18.9612V2Z" fill="#D0D5DD"/>
<path d="M35 17.9609L35 18.0386L3 18.0386L3 17.9609L35 17.9609Z" fill="#D0D5DD"/>
<path d="M29.6019 2H29.6796V34H29.6019V2Z" fill="#D0D5DD"/>
<path d="M13.6407 2H13.7184V34H13.6407V2Z" fill="#D0D5DD"/>
<path d="M24.2816 2H24.3592V34H24.2816V2Z" fill="#D0D5DD"/>
<path d="M8.32037 2H8.39804V34H8.32037V2Z" fill="#D0D5DD"/>
<path d="M35 28.6016L35 28.6792L3 28.6792L3 28.6016L35 28.6016Z" fill="#D0D5DD"/>
<path d="M35 12.6406L35 12.7183L3 12.7183L3 12.6406L35 12.6406Z" fill="#D0D5DD"/>
<path d="M35 23.2812L35 23.3589L3 23.3589L3 23.2812L35 23.2812Z" fill="#D0D5DD"/>
<path d="M35 7.32031L35 7.39798L3 7.39798L3 7.32031L35 7.32031Z" fill="#D0D5DD"/>
<g filter="url(#filter1_dd_6_40117)">
<circle cx="19" cy="18" r="8" fill="url(#paint1_linear_6_40117)"/>
</g>
<g filter="url(#filter2_b_6_40117)">
<path d="M3 18H35V21.2C35 25.6804 35 27.9206 34.1281 29.6319C33.3611 31.1372 32.1372 32.3611 30.6319 33.1281C28.9206 34 26.6804 34 22.2 34H15.8C11.3196 34 9.07937 34 7.36808 33.1281C5.86278 32.3611 4.63893 31.1372 3.87195 29.6319C3 27.9206 3 25.6804 3 21.2V18Z" fill="white" fill-opacity="0.2"/>
</g>
</g>
<rect x="3.1" y="2.1" width="31.8" height="31.8" rx="7.9" stroke="#D0D5DD" stroke-width="0.2"/>
</g>
<path d="M54.9432 15.1477H53.1705C53.1023 14.7689 52.9754 14.4356 52.7898 14.1477C52.6042 13.8598 52.3769 13.6155 52.108 13.4148C51.839 13.214 51.5379 13.0625 51.2045 12.9602C50.875 12.858 50.5246 12.8068 50.1534 12.8068C49.483 12.8068 48.8826 12.9754 48.3523 13.3125C47.8258 13.6496 47.4091 14.1439 47.1023 14.7955C46.7992 15.447 46.6477 16.2424 46.6477 17.1818C46.6477 18.1288 46.7992 18.928 47.1023 19.5795C47.4091 20.2311 47.8277 20.7235 48.358 21.0568C48.8883 21.3902 49.4848 21.5568 50.1477 21.5568C50.5152 21.5568 50.8636 21.5076 51.1932 21.4091C51.5265 21.3068 51.8277 21.1572 52.0966 20.9602C52.3655 20.7633 52.5928 20.5227 52.7784 20.2386C52.9678 19.9508 53.0985 19.6212 53.1705 19.25L54.9432 19.2557C54.8485 19.8277 54.6648 20.3542 54.392 20.8352C54.1231 21.3125 53.7765 21.7254 53.3523 22.0739C52.9318 22.4186 52.4508 22.6856 51.9091 22.875C51.3674 23.0644 50.7765 23.1591 50.1364 23.1591C49.1288 23.1591 48.2311 22.9205 47.4432 22.4432C46.6553 21.9621 46.0341 21.2746 45.5795 20.3807C45.1288 19.4867 44.9034 18.4205 44.9034 17.1818C44.9034 15.9394 45.1307 14.8731 45.5852 13.983C46.0398 13.089 46.661 12.4034 47.4489 11.9261C48.2367 11.4451 49.1326 11.2045 50.1364 11.2045C50.7538 11.2045 51.3295 11.2936 51.8636 11.4716C52.4015 11.6458 52.8845 11.9034 53.3125 12.2443C53.7405 12.5814 54.0947 12.9943 54.375 13.483C54.6553 13.9678 54.8447 14.5227 54.9432 15.1477ZM58.6065 11.3636V23H56.9077V11.3636H58.6065ZM60.892 23V14.2727H62.5909V23H60.892ZM61.75 12.9261C61.4545 12.9261 61.2008 12.8277 60.9886 12.6307C60.7803 12.4299 60.6761 12.1913 60.6761 11.9148C60.6761 11.6345 60.7803 11.3958 60.9886 11.1989C61.2008 10.9981 61.4545 10.8977 61.75 10.8977C62.0455 10.8977 62.2973 10.9981 62.5057 11.1989C62.7178 11.3958 62.8239 11.6345 62.8239 11.9148C62.8239 12.1913 62.7178 12.4299 62.5057 12.6307C62.2973 12.8277 62.0455 12.9261 61.75 12.9261ZM68.5526 23.1761C67.7079 23.1761 66.9806 22.9848 66.3707 22.6023C65.7647 22.2159 65.2988 21.6837 64.973 21.0057C64.6473 20.3277 64.4844 19.5511 64.4844 18.6761C64.4844 17.7898 64.651 17.0076 64.9844 16.3295C65.3177 15.6477 65.7874 15.1155 66.3935 14.733C66.9995 14.3504 67.7135 14.1591 68.5355 14.1591C69.1984 14.1591 69.7893 14.2822 70.3082 14.5284C70.8272 14.7708 71.2457 15.1117 71.5639 15.5511C71.8859 15.9905 72.0772 16.5038 72.1378 17.0909H70.4844C70.3935 16.6818 70.1851 16.3295 69.8594 16.0341C69.5374 15.7386 69.1056 15.5909 68.5639 15.5909C68.0904 15.5909 67.6757 15.7159 67.3196 15.9659C66.9673 16.2121 66.6927 16.5644 66.4957 17.0227C66.2988 17.4773 66.2003 18.0152 66.2003 18.6364C66.2003 19.2727 66.2969 19.822 66.4901 20.2841C66.6832 20.7462 66.956 21.1042 67.3082 21.358C67.6643 21.6117 68.0829 21.7386 68.5639 21.7386C68.8859 21.7386 69.1776 21.6799 69.4389 21.5625C69.7041 21.4413 69.9257 21.2689 70.1037 21.0455C70.2855 20.822 70.4124 20.553 70.4844 20.2386H72.1378C72.0772 20.803 71.8935 21.3068 71.5866 21.75C71.2798 22.1932 70.8688 22.5417 70.3537 22.7955C69.8423 23.0492 69.242 23.1761 68.5526 23.1761ZM75.517 20.0398L75.5057 17.9659H75.8011L79.2784 14.2727H81.3125L77.3466 18.4773H77.0795L75.517 20.0398ZM73.9545 23V11.3636H75.6534V23H73.9545ZM79.4659 23L76.3409 18.8523L77.5114 17.6648L81.5511 23H79.4659ZM81.517 12.875V11.3636H90.5227V12.875H86.892V23H85.142V12.875H81.517ZM92.3764 23V14.2727H94.0753V23H92.3764ZM93.2344 12.9261C92.9389 12.9261 92.6851 12.8277 92.473 12.6307C92.2647 12.4299 92.1605 12.1913 92.1605 11.9148C92.1605 11.6345 92.2647 11.3958 92.473 11.1989C92.6851 10.9981 92.9389 10.8977 93.2344 10.8977C93.5298 10.8977 93.7817 10.9981 93.9901 11.1989C94.2022 11.3958 94.3082 11.6345 94.3082 11.9148C94.3082 12.1913 94.2022 12.4299 93.9901 12.6307C93.7817 12.8277 93.5298 12.9261 93.2344 12.9261ZM97.9233 20.0398L97.9119 17.9659H98.2074L101.685 14.2727H103.719L99.7528 18.4773H99.4858L97.9233 20.0398ZM96.3608 23V11.3636H98.0597V23H96.3608ZM101.872 23L98.7472 18.8523L99.9176 17.6648L103.957 23H101.872Z" fill="black"/>
<defs>
<filter id="filter0_dd_6_40117" x="0" y="0" width="38" height="38" filterUnits="userSpaceOnUse" color-interpolation-filters="sRGB">
<feFlood flood-opacity="0" result="BackgroundImageFix"/>
<feColorMatrix in="SourceAlpha" type="matrix" values="0 0 0 0 0 0 0 0 0 0 0 0 0 0 0 0 0 0 127 0" result="hardAlpha"/>
<feOffset dy="1"/>
<feGaussianBlur stdDeviation="1"/>
<feColorMatrix type="matrix" values="0 0 0 0 0.0627451 0 0 0 0 0.0941176 0 0 0 0 0.156863 0 0 0 0.06 0"/>
<feBlend mode="normal" in2="BackgroundImageFix" result="effect1_dropShadow_6_40117"/>
<feColorMatrix in="SourceAlpha" type="matrix" values="0 0 0 0 0 0 0 0 0 0 0 0 0 0 0 0 0 0 127 0" result="hardAlpha"/>
<feOffset dy="1"/>
<feGaussianBlur stdDeviation="1.5"/>
<feColorMatrix type="matrix" values="0 0 0 0 0.0627451 0 0 0 0 0.0941176 0 0 0 0 0.156863 0 0 0 0.1 0"/>
<feBlend mode="normal" in2="effect1_dropShadow_6_40117" result="effect2_dropShadow_6_40117"/>
<feBlend mode="normal" in="SourceGraphic" in2="effect2_dropShadow_6_40117" result="shape"/>
</filter>
<filter id="filter1_dd_6_40117" x="8" y="8" width="22" height="22" filterUnits="userSpaceOnUse" color-interpolation-filters="sRGB">
<feFlood flood-opacity="0" result="BackgroundImageFix"/>
<feColorMatrix in="SourceAlpha" type="matrix" values="0 0 0 0 0 0 0 0 0 0 0 0 0 0 0 0 0 0 127 0" result="hardAlpha"/>
<feOffset dy="1"/>
<feGaussianBlur stdDeviation="1"/>
<feColorMatrix type="matrix" values="0 0 0 0 0.0627451 0 0 0 0 0.0941176 0 0 0 0 0.156863 0 0 0 0.06 0"/>
<feBlend mode="normal" in2="BackgroundImageFix" result="effect1_dropShadow_6_40117"/>
<feColorMatrix in="SourceAlpha" type="matrix" values="0 0 0 0 0 0 0 0 0 0 0 0 0 0 0 0 0 0 127 0" result="hardAlpha"/>
<feOffset dy="1"/>
<feGaussianBlur stdDeviation="1.5"/>
<feColorMatrix type="matrix" values="0 0 0 0 0.0627451 0 0 0 0 0.0941176 0 0 0 0 0.156863 0 0 0 0.1 0"/>
<feBlend mode="normal" in2="effect1_dropShadow_6_40117" result="effect2_dropShadow_6_40117"/>
<feBlend mode="normal" in="SourceGraphic" in2="effect2_dropShadow_6_40117" result="shape"/>
</filter>
<filter id="filter2_b_6_40117" x="-2" y="13" width="42" height="26" filterUnits="userSpaceOnUse" color-interpolation-filters="sRGB">
<feFlood flood-opacity="0" result="BackgroundImageFix"/>
<feGaussianBlur in="BackgroundImageFix" stdDeviation="2.5"/>
<feComposite in2="SourceAlpha" operator="in" result="effect1_backgroundBlur_6_40117"/>
<feBlend mode="normal" in="SourceGraphic" in2="effect1_backgroundBlur_6_40117" result="shape"/>
</filter>
<linearGradient id="paint0_linear_6_40117" x1="19" y1="2" x2="19" y2="34" gradientUnits="userSpaceOnUse">
<stop stop-color="white"/>
<stop offset="1" stop-color="#D0D5DD"/>
</linearGradient>
<linearGradient id="paint1_linear_6_40117" x1="15" y1="26" x2="23" y2="10" gradientUnits="userSpaceOnUse">
<stop stop-color="#41CCCC"/>
<stop offset="1" stop-color="#41CCCC"/>
</linearGradient>
<clipPath id="clip0_6_40117">
<rect x="3" y="2" width="32" height="32" rx="8" fill="white"/>
</clipPath>
</defs>
</svg>
