<svg width="30" height="30" viewBox="0 0 30 30" fill="none" xmlns="http://www.w3.org/2000/svg">
<rect width="30" height="30" rx="4" fill="white"/>
<rect x="0.35" y="0.35" width="29.3" height="29.3" rx="3.65" stroke="#303750" stroke-opacity="0.08" stroke-width="0.7"/>
<path fill-rule="evenodd" clip-rule="evenodd" d="M12.1885 8.9145C11.979 8.70496 11.979 8.36523 12.1885 8.15569C12.3981 7.94615 12.7378 7.94615 12.9473 8.15569L18.8115 14.0199C18.942 14.1504 18.9912 14.3314 18.9592 14.5C18.9912 14.6686 18.942 14.8496 18.8115 14.9802L12.9473 20.8443C12.7378 21.0539 12.3981 21.0539 12.1885 20.8443C11.979 20.6348 11.979 20.2951 12.1885 20.0855L17.774 14.5L12.1885 8.9145Z" fill="#1C0A41"/>
<mask id="mask0_14_21317" style="mask-type:luminance" maskUnits="userSpaceOnUse" x="12" y="7" width="7" height="15">
<path fill-rule="evenodd" clip-rule="evenodd" d="M12.1885 8.9145C11.979 8.70496 11.979 8.36523 12.1885 8.15569C12.3981 7.94615 12.7378 7.94615 12.9473 8.15569L18.8115 14.0199C18.942 14.1504 18.9912 14.3314 18.9592 14.5C18.9912 14.6686 18.942 14.8496 18.8115 14.9802L12.9473 20.8443C12.7378 21.0539 12.3981 21.0539 12.1885 20.8443C11.979 20.6348 11.979 20.2951 12.1885 20.0855L17.774 14.5L12.1885 8.9145Z" fill="white"/>
</mask>
<g mask="url(#mask0_14_21317)">
</g>
</svg>
